<svg width="30" height="30" viewBox="0 0 30 30" fill="none" xmlns="http://www.w3.org/2000/svg">
<g id="logo">
<path d="M29.7397 14.477C30.0927 14.7417 30.0854 15.2735 29.7254 15.5285L26.602 17.7409C26.5672 17.7656 26.5301 17.7867 26.4911 17.8041L23.5615 19.1118C23.1311 19.3039 22.6456 18.9889 22.6456 18.5176V11.4697C22.6456 11.0083 23.1126 10.6934 23.5404 10.8666L26.4712 12.0527C26.5233 12.0738 26.5725 12.1015 26.6175 12.1353L29.7397 14.477Z" fill="#F46171"/>
<path d="M17.1147 14.9658C17.1147 12.4502 19.154 10.411 21.6695 10.411C24.1851 10.411 26.2244 12.4502 26.2244 14.9658C26.2244 17.4814 24.1851 19.5206 21.6695 19.5206C19.154 19.5206 17.1147 17.4814 17.1147 14.9658Z" fill="#F46171"/>
<path d="M0.260277 15.4546C-0.0926775 15.1899 -0.085445 14.6581 0.274578 14.4031L3.39797 12.1907C3.43277 12.1661 3.46991 12.1449 3.50886 12.1275L6.43851 10.8198C6.86891 10.6277 7.35442 10.9427 7.35442 11.414V18.4619C7.35442 18.9233 6.88739 19.2382 6.45963 19.065L3.52883 17.8789C3.4767 17.8578 3.42752 17.8301 3.38252 17.7963L0.260277 15.4546Z" fill="#FFD18E"/>
<path d="M12.8853 14.9658C12.8853 17.4814 10.846 19.5206 8.33045 19.5206C5.8149 19.5206 3.77564 17.4814 3.77564 14.9658C3.77564 12.4502 5.8149 10.411 8.33045 10.411C10.846 10.411 12.8853 12.4502 12.8853 14.9658Z" fill="#FFD18E"/>
<path d="M9.02165 20.2744C9.27122 20.2388 9.48318 20.4566 9.44075 20.7051L9.07266 22.8611C9.06855 22.8851 9.0621 22.9087 9.05339 22.9314L8.39802 24.6436C8.30174 24.8951 7.97829 24.964 7.78785 24.7736L4.94007 21.9258C4.75361 21.7393 4.81512 21.4234 5.05791 21.3205L6.72139 20.6156C6.75098 20.603 6.78207 20.5944 6.81389 20.5898L9.02165 20.2744Z" fill="#B74791"/>
<path d="M4.1179 25.5732C3.10146 24.5568 3.10146 22.9088 4.1179 21.8924C5.13434 20.8759 6.78231 20.8759 7.79874 21.8924C8.81518 22.9088 8.81518 24.5568 7.79874 25.5732C6.78231 26.5897 5.13434 26.5897 4.1179 25.5732Z" fill="#B74791"/>
<path d="M20.6696 9.41662C20.42 9.45227 20.208 9.23447 20.2505 8.98596L20.6185 6.82997C20.6226 6.80594 20.6291 6.78238 20.6378 6.75962L21.2932 5.04747C21.3895 4.79594 21.7129 4.72703 21.9034 4.91748L24.7511 7.76525C24.9376 7.95171 24.8761 8.26763 24.6333 8.37052L22.9698 9.07548C22.9402 9.08802 22.9091 9.09667 22.8773 9.10122L20.6696 9.41662Z" fill="#F6B1B0"/>
<path d="M25.5733 4.11783C26.5897 5.13427 26.5897 6.78224 25.5733 7.79867C24.5569 8.81511 22.9089 8.81511 21.8925 7.79867C20.876 6.78224 20.876 5.13427 21.8925 4.11783C22.9089 3.10139 24.5569 3.10139 25.5733 4.11783Z" fill="#F6B1B0"/>
<path d="M9.41661 9.02157C9.45227 9.27114 9.23447 9.4831 8.98595 9.44067L6.82996 9.07258C6.80594 9.06848 6.78238 9.06202 6.75962 9.05331L5.04747 8.39794C4.79594 8.30166 4.72703 7.97821 4.91747 7.78777L7.76525 4.93999C7.95171 4.75353 8.26762 4.81504 8.37051 5.05783L9.07548 6.72131C9.08802 6.7509 9.09667 6.78199 9.10121 6.81381L9.41661 9.02157Z" fill="#F46171"/>
<path d="M4.11783 4.11782C5.13426 3.10139 6.78223 3.10139 7.79867 4.11782C8.81511 5.13426 8.81511 6.78223 7.79867 7.79867C6.78223 8.8151 5.13426 8.8151 4.11783 7.79867C3.10139 6.78223 3.10139 5.13426 4.11783 4.11782Z" fill="#F46171"/>
<path d="M20.2744 20.6695C20.2388 20.4199 20.4566 20.2079 20.7051 20.2504L22.8611 20.6185C22.8851 20.6226 22.9087 20.629 22.9314 20.6377L24.6436 21.2931C24.8951 21.3894 24.964 21.7128 24.7736 21.9033L21.9258 24.751C21.7393 24.9375 21.4234 24.876 21.3205 24.6332L20.6156 22.9697C20.603 22.9401 20.5944 22.909 20.5898 22.8772L20.2744 20.6695Z" fill="#FFD18E"/>
<path d="M25.5732 25.5732C24.5568 26.5897 22.9088 26.5897 21.8924 25.5732C20.8759 24.5568 20.8759 22.9088 21.8924 21.8924C22.9088 20.8759 24.5568 20.8759 25.5732 21.8924C26.5897 22.9088 26.5897 24.5568 25.5732 25.5732Z" fill="#FFD18E"/>
<path d="M15.4547 29.7397C15.19 30.0927 14.6582 30.0854 14.4032 29.7254L12.1908 26.602C12.1661 26.5672 12.145 26.5301 12.1276 26.4911L10.8199 23.5615C10.6278 23.1311 10.9427 22.6456 11.4141 22.6456H18.462C18.9234 22.6456 19.2382 23.1126 19.0651 23.5404L17.879 26.4712C17.8579 26.5233 17.8301 26.5725 17.7964 26.6175L15.4547 29.7397Z" fill="#F6B1B0"/>
<path d="M14.9659 17.1147C17.4814 17.1147 19.5207 19.154 19.5207 21.6695C19.5207 24.1851 17.4814 26.2244 14.9659 26.2244C12.4503 26.2244 10.4111 24.1851 10.4111 21.6695C10.4111 19.154 12.4503 17.1147 14.9659 17.1147Z" fill="#F6B1B0"/>
<path d="M14.477 0.260277C14.7418 -0.0926775 15.2736 -0.085445 15.5286 0.274578L17.741 3.39797C17.7656 3.43277 17.7868 3.46991 17.8042 3.50886L19.1119 6.43851C19.304 6.86891 18.989 7.35442 18.5177 7.35442H11.4698C11.0083 7.35442 10.6935 6.88739 10.8666 6.45963L12.0528 3.52883C12.0738 3.4767 12.1016 3.42752 12.1354 3.38252L14.477 0.260277Z" fill="#B74791"/>
<path d="M14.9659 12.8853C12.4503 12.8853 10.4111 10.846 10.4111 8.33045C10.4111 5.8149 12.4503 3.77564 14.9659 3.77564C17.4814 3.77564 19.5207 5.8149 19.5207 8.33045C19.5207 10.846 17.4814 12.8853 14.9659 12.8853Z" fill="#B74791"/>
</g>
</svg>
